<svg xmlns="http://www.w3.org/2000/svg" viewBox="0 0 512 512">
  <!-- Rounded-square mark (~22% corner radius) matching favicon-512.png. -->
  <rect width="512" height="512" rx="112.6" fill="#3a6046" />
  <!-- The "B" as an outlined path (traced from the source PNG glyph), not
       text — SVG favicons don't reliably load webfonts, so this must not
       depend on Bricolage Grotesque being available. -->
  <path
    d="M 161 242.495 L 161 364.131 225.750 363.721 C 286.469 363.338, 291.091 363.184, 300 361.255 C 325.802 355.669, 341.334 346.742, 351.598 331.596 C 355.126 326.391, 357.931 317.426, 359.080 307.681 C 362.482 278.838, 347.865 255.584, 321 247.098 C 313.419 244.703, 298.463 242, 292.796 242 C 289.623 242, 288.917 241.668, 289.181 240.300 C 289.433 238.990, 291.348 238.335, 297.504 237.450 C 325.367 233.446, 342.051 220.930, 348.091 199.500 C 348.896 196.643, 349.500 190.001, 349.500 184 C 349.500 172.562, 348.226 166.602, 343.943 158 C 335.007 140.055, 317.517 129.237, 288 123.397 C 280.790 121.971, 270.506 121.650, 220.250 121.287 L 161 120.859 161 242.495 M 214 193.500 L 214 223 237.412 223 C 270.872 223, 281.743 220.528, 290.341 210.966 C 295.278 205.474, 297.172 200.152, 297.132 191.879 C 297.082 181.284, 292.294 174.039, 282.215 169.304 C 273.511 165.215, 263.873 164.073, 237.750 164.035 L 214 164 214 193.500 M 214 290.400 L 214 321 240.276 321 C 277.946 321, 288.712 319.218, 297.741 311.489 C 303.891 306.226, 306.469 300.120, 306.393 291 C 306.296 279.325, 301.267 271.637, 290.350 266.472 C 279.767 261.466, 274.555 260.780, 243.250 260.273 L 214 259.800 214 290.400"
    fill="#faf8f1"
    fill-rule="evenodd"
  />
</svg>
